Coordinates
version=1
nRows=60
nColumns=12
inDegrees=yes

Units are S.I. units (second, meters, Newtons, ...)
Angles are in degrees

endheader
time	SC_y	SC_z	SC_x	AC_y	AC_z	AC_x	GH_y	GH_z	GH_yy	EL_x	PS_y
       0.0               -58.3          19.46          18.56          32.75         -8.251         -8.585         -25.53          23.98         -173.2          122.3          116.2
   0.02185               -58.3          19.46          18.56          32.76          -8.25         -8.585         -25.53          23.97         -173.2          122.3          116.2
    0.0437              -58.29          19.46          18.57          32.76         -8.248         -8.585         -25.53          23.97         -173.1          122.3          116.2
   0.06555              -58.29          19.46          18.57          32.76         -8.246         -8.585         -25.53          23.97         -173.1          122.3          116.2
    0.0874              -58.28          19.46          18.58          32.76         -8.244         -8.586         -25.53          23.97         -173.0          122.3          116.2
    0.1092              -58.28          19.46          18.58          32.77         -8.242         -8.586         -25.54          23.96         -173.0          122.3          116.2
    0.1311              -58.27          19.46          18.59          32.77          -8.24         -8.586         -25.54          23.96         -172.9          122.3          116.2
    0.1529              -58.26          19.46           18.6          32.77         -8.237         -8.587         -25.54          23.95         -172.9          122.3          116.2
    0.1748              -58.26          19.46          18.61          32.78         -8.235         -8.587         -25.54          23.95         -172.8          122.3          116.2
    0.1966              -58.25          19.46          18.61          32.78         -8.232         -8.587         -25.54          23.94         -172.8          122.3          116.2
    0.2185              -58.24          19.46          18.62          32.78         -8.229         -8.588         -25.55          23.94         -172.7          122.3          116.2
    0.2403              -58.23          19.46          18.63          32.79         -8.226         -8.588         -25.55          23.93         -172.7          122.3          116.2
    0.2622              -58.22          19.46          18.64          32.79         -8.223         -8.589         -25.55          23.93         -172.6          122.2          116.2
     0.284              -58.21          19.46          18.66           32.8         -8.219         -8.589         -25.55          23.92         -172.5          122.2          116.2
    0.3059               -58.2          19.46          18.67          32.81         -8.215          -8.59         -25.56          23.92         -172.4          122.2          116.2
    0.3277              -58.19          19.47          18.68          32.81          -8.21          -8.59         -25.56          23.91         -172.3          122.2          116.2
    0.3496              -58.17          19.47           18.7          32.82         -8.206         -8.591         -25.56           23.9         -172.2          122.2          116.2
    0.3714              -58.16          19.47          18.71          32.83         -8.201         -8.592         -25.57          23.89         -172.1          122.2          116.2
    0.3933              -58.14          19.47          18.73          32.83         -8.195         -8.592         -25.57          23.88         -172.0          122.2          116.2
    0.4151              -58.12          19.47          18.75          32.84         -8.189         -8.593         -25.58          23.87         -171.9          122.1          116.2
     0.437               -58.1          19.47          18.77          32.85         -8.182         -8.594         -25.58          23.86         -171.7          122.1          116.2
    0.4588              -58.08          19.47          18.79          32.86         -8.175         -8.595         -25.59          23.85         -171.6          122.1          116.2
    0.4807              -58.06          19.47          18.82          32.88         -8.166         -8.596         -25.59          23.83         -171.4          122.1          116.2
    0.5025              -58.03          19.47          18.85          32.89         -8.157         -8.597          -25.6          23.82         -171.2          122.1          116.2
    0.5244              -58.01          19.47          18.88           32.9         -8.147         -8.599         -25.61           23.8         -171.0          122.0          116.2
    0.5462              -57.97          19.47          18.91          32.92         -8.136           -8.6         -25.62          23.78         -170.8          122.0          116.2
    0.5681              -57.94          19.47          18.95          32.94         -8.123         -8.602         -25.63          23.76         -170.5          122.0          116.2
    0.5899               -57.9          19.47          18.99          32.96         -8.109         -8.604         -25.64          23.73         -170.2          121.9          116.2
    0.6118              -57.85          19.47          19.04          32.98         -8.093         -8.606         -25.65          23.71         -169.9          121.9          116.2
    0.6336               -57.8          19.47           19.1          33.01         -8.074         -8.609         -25.66          23.68         -169.5          121.8          116.3
    0.6555              -57.74          19.47          19.17          33.04         -8.053         -8.612         -25.68          23.64         -169.0          121.8          116.3
    0.6773              -57.67          19.48          19.24          33.07         -8.029         -8.615          -25.7           23.6         -168.5          121.7          116.3
    0.6992              -57.59          19.48          19.32          33.11         -8.002         -8.619         -25.72          23.55         -168.0          121.6          116.3
     0.721               -57.5          19.48          19.42          33.16          -7.97         -8.623         -25.74           23.5         -167.3          121.5          116.3
    0.7429               -57.4          19.48          19.54          33.21         -7.932         -8.628         -25.77          23.43         -166.5          121.4          116.3
    0.7647              -57.27          19.48          19.68          33.28         -7.887         -8.634         -25.81          23.36         -165.6          121.3          116.3
    0.7866              -57.12          19.49          19.84          33.35         -7.835         -8.641         -25.85          23.27         -164.5          121.1          116.3
    0.8084              -56.94          19.49          20.03          33.44         -7.772          -8.65         -25.89          23.16         -163.1          121.0          116.3
    0.8303              -56.72          19.49          20.27          33.55         -7.695          -8.66         -25.95          23.03         -161.5          120.7          116.4
    0.8521              -56.46           19.5          20.56          33.69         -7.602         -8.673         -26.02          22.87         -159.6          120.5          116.4
     0.874              -56.13          19.51          20.91          33.85         -7.486         -8.689         -26.11          22.68         -157.2          120.2          116.4
    0.8958              -55.72          19.51          21.35          34.06         -7.342         -8.709         -26.22          22.43         -154.1          119.8          116.5
    0.9177              -55.21          19.53          21.91          34.32         -7.161         -8.733         -26.36          22.12         -150.3          119.2          116.5
    0.9395              -54.56          19.54          22.62          34.65         -6.931         -8.765         -26.53          21.73         -145.5          118.6          116.6
    0.9613              -53.72          19.56          23.53          35.07         -6.636         -8.805         -26.76          21.23         -139.3          117.8          116.7
    0.9832              -52.65          19.58          24.69          35.62         -6.258         -8.856         -27.04          20.59         -131.4          116.7          116.8
     1.005              -51.28           19.6          26.18          36.31         -5.775         -8.922         -27.41          19.76         -121.3          115.3          117.0
     1.027              -49.55          19.64          28.05          37.19         -5.167         -9.005         -27.87          18.73         -108.6          113.6          117.1
     1.049              -47.45          19.68          30.33          38.25         -4.427         -9.106         -28.43          17.47         -93.05          111.5          117.4
     1.071              -45.02          19.73          32.97          39.48         -3.569         -9.223         -29.09          16.01         -75.06          109.1          117.6
     1.092              -42.38          19.78          35.84          40.82          -2.64          -9.35         -29.79          14.43         -55.59          106.4          117.9
     1.114              -39.74          19.84           38.7          42.16          -1.71         -9.476          -30.5          12.85         -36.12          103.8          118.2
     1.136              -37.31          19.89          41.34          43.39        -0.8522         -9.593         -31.15          11.39         -18.14          101.4          118.5
     1.158              -35.21          19.93          43.62          44.45        -0.1118         -9.694         -31.71          10.13         -2.628          99.28          118.7
      1.18              -33.49          19.96          45.49          45.33         0.4957         -9.777         -32.17          9.091           10.1          97.56          118.9
     1.202              -32.12          19.99          46.98          46.02         0.9789         -9.843         -32.54          8.269          20.23          96.19          119.0
     1.224              -31.04          20.01          48.14          46.56          1.357         -9.895         -32.83          7.625          28.15          95.12          119.1
     1.245              -30.21          20.03          49.05          46.99          1.652         -9.935         -33.05          7.124          34.33          94.29          119.2
     1.267              -29.55          20.04          49.76          47.32          1.882         -9.966         -33.23          6.732          39.15          93.64          119.3
     1.289              -29.04          20.05          50.32          47.58          2.063         -9.991         -33.37          6.423          42.95          93.12          119.3
